<svg id="Layer_1" data-name="Layer 1" xmlns="http://www.w3.org/2000/svg" viewBox="0 0 512 512"><defs><style>.cls-1{fill:#fff;}</style></defs><path class="cls-1" d="M501.33,170.67h-160v-160A10.67,10.67,0,0,0,330.67,0h-160A10.67,10.67,0,0,0,160,10.67v160H10.67A10.67,10.67,0,0,0,0,181.33V330.67a10.67,10.67,0,0,0,10.67,10.66H160v160A10.67,10.67,0,0,0,170.67,512h160a10.67,10.67,0,0,0,10.66-10.67v-160h160A10.67,10.67,0,0,0,512,330.67V181.33A10.67,10.67,0,0,0,501.33,170.67Z" transform="translate(0 0)"/></svg>